<?xml version="1.0" encoding="UTF-8" standalone="no"?>
<!-- Created with Inkscape (http://www.inkscape.org/) -->

<svg
   width="1920"
   height="1080"
   viewBox="0 0 1920 1080"
   version="1.1"
   id="svg1"
   xml:space="preserve"
   inkscape:version="1.4.2 (f4327f4, 2025-05-13)"
   sodipodi:docname="Settings-Window.svg"
   xmlns:inkscape="http://www.inkscape.org/namespaces/inkscape"
   xmlns:sodipodi="http://sodipodi.sourceforge.net/DTD/sodipodi-0.dtd"
   xmlns="http://www.w3.org/2000/svg"
   xmlns:svg="http://www.w3.org/2000/svg"><sodipodi:namedview
     id="namedview1"
     pagecolor="#ffffff"
     bordercolor="#000000"
     borderopacity="0.25"
     inkscape:showpageshadow="2"
     inkscape:pageopacity="0.0"
     inkscape:pagecheckerboard="0"
     inkscape:deskcolor="#d1d1d1"
     inkscape:document-units="px"
     inkscape:zoom="0.75462963"
     inkscape:cx="2784.1472"
     inkscape:cy="1021.0307"
     inkscape:window-width="1920"
     inkscape:window-height="1017"
     inkscape:window-x="-8"
     inkscape:window-y="-8"
     inkscape:window-maximized="1"
     inkscape:current-layer="layer1"
     showguides="true"><sodipodi:guide
       position="147.09202,591.0184"
       orientation="1,0"
       id="guide22"
       inkscape:locked="false" /><sodipodi:guide
       position="438.62577,377.66871"
       orientation="1,0"
       id="guide23"
       inkscape:locked="false" /><sodipodi:guide
       position="724.8589,428.02454"
       orientation="1,0"
       id="guide24"
       inkscape:locked="false" /><sodipodi:guide
       position="1015.0675,420.07362"
       orientation="1,0"
       id="guide25"
       inkscape:locked="false" /><sodipodi:guide
       position="1307.9264,463.80368"
       orientation="1,0"
       id="guide26"
       inkscape:locked="false" /><sodipodi:guide
       position="1611.3865,499.58282"
       orientation="1,0"
       id="guide27"
       inkscape:locked="false" /><inkscape:page
       x="0"
       y="0"
       width="1920"
       height="1080"
       id="page47"
       margin="0"
       bleed="0" /><inkscape:page
       x="1930"
       y="0"
       width="1920"
       height="1080"
       id="page48"
       margin="0"
       bleed="0" /></sodipodi:namedview><defs
     id="defs1" /><g
     inkscape:label="Layer 1"
     inkscape:groupmode="layer"
     id="layer1"><rect
       style="fill:#f2f2f2;fill-opacity:1;stroke:#f2f2f2;stroke-width:3;stroke-opacity:1"
       id="rect1"
       width="1916.0245"
       height="1078.5"
       x="3.9754436"
       y="1.5000001" /><circle
       style="fill:#559ef2;fill-opacity:1;stroke:#559ef2;stroke-width:2.99999;stroke-opacity:1"
       id="path1"
       cx="222.99387"
       cy="304.39877"
       r="74.444794" /><rect
       style="fill:#ffffff;fill-opacity:1;stroke:#559ef2;stroke-width:1;stroke-dasharray:none;stroke-opacity:1"
       id="rect2"
       width="1477.3098"
       height="60.957054"
       x="275.86823"
       y="66.257668" /><circle
       style="fill:#559ef2;fill-opacity:1;stroke:#559ef2;stroke-width:2.99999;stroke-opacity:1"
       id="circle6"
       cx="515.95215"
       cy="304.39877"
       r="74.444794" /><circle
       style="fill:#559ef2;fill-opacity:1;stroke:#559ef2;stroke-width:2.99999;stroke-opacity:1"
       id="circle7"
       cx="800.42859"
       cy="304.39877"
       r="74.444794" /><circle
       style="fill:#559ef2;fill-opacity:1;stroke:#559ef2;stroke-width:2.99999;stroke-opacity:1"
       id="circle8"
       cx="1091.5239"
       cy="304.39877"
       r="74.444794" /><circle
       style="fill:#559ef2;fill-opacity:1;stroke:#559ef2;stroke-width:2.99999;stroke-opacity:1"
       id="circle9"
       cx="1383.7434"
       cy="304.39877"
       r="74.444794" /><circle
       style="fill:#559ef2;fill-opacity:1;stroke:#559ef2;stroke-width:2.99999;stroke-opacity:1"
       id="circle10"
       cx="1687.2883"
       cy="304.39877"
       r="74.444794" /><circle
       style="fill:#559ef2;fill-opacity:1;stroke:#559ef2;stroke-width:2.99999;stroke-opacity:1"
       id="circle11"
       cx="220.6933"
       cy="595.9325"
       r="74.444794" /><circle
       style="fill:#559ef2;fill-opacity:1;stroke:#559ef2;stroke-width:2.99999;stroke-opacity:1"
       id="circle12"
       cx="513.65161"
       cy="595.9325"
       r="74.444794" /><circle
       style="fill:#559ef2;fill-opacity:1;stroke:#559ef2;stroke-width:2.99999;stroke-opacity:1"
       id="circle13"
       cx="800.12799"
       cy="595.9325"
       r="74.444794" /><circle
       style="fill:#559ef2;fill-opacity:1;stroke:#559ef2;stroke-width:2.99999;stroke-opacity:1"
       id="circle14"
       cx="1091.2234"
       cy="595.9325"
       r="74.444794" /><circle
       style="fill:#559ef2;fill-opacity:1;stroke:#559ef2;stroke-width:2.99999;stroke-opacity:1"
       id="circle15"
       cx="1383.4429"
       cy="595.9325"
       r="74.444794" /><circle
       style="fill:#559ef2;fill-opacity:1;stroke:#559ef2;stroke-width:2.99999;stroke-opacity:1"
       id="circle16"
       cx="1686.9878"
       cy="595.9325"
       r="74.444794" /><circle
       style="fill:#559ef2;fill-opacity:1;stroke:#559ef2;stroke-width:2.99999;stroke-opacity:1"
       id="circle17"
       cx="223.17183"
       cy="870.23926"
       r="74.444794" /><circle
       style="fill:#559ef2;fill-opacity:1;stroke:#559ef2;stroke-width:2.99999;stroke-opacity:1"
       id="circle18"
       cx="516.13007"
       cy="870.23926"
       r="74.444794" /><circle
       style="fill:#559ef2;fill-opacity:1;stroke:#559ef2;stroke-width:2.99999;stroke-opacity:1"
       id="circle19"
       cx="802.60651"
       cy="870.23926"
       r="74.444794" /><circle
       style="fill:#559ef2;fill-opacity:1;stroke:#559ef2;stroke-width:2.99999;stroke-opacity:1"
       id="circle20"
       cx="1091.7019"
       cy="870.23926"
       r="74.444794" /><circle
       style="fill:#559ef2;fill-opacity:1;stroke:#559ef2;stroke-width:2.99999;stroke-opacity:1"
       id="circle21"
       cx="1385.9214"
       cy="868.23926"
       r="74.444794" /><circle
       style="fill:#559ef2;fill-opacity:1;stroke:#559ef2;stroke-width:2.99999;stroke-opacity:1"
       id="circle22"
       cx="1689.4663"
       cy="868.23926"
       r="74.444794" /><g
       style="fill:none;stroke:#ffffff;stroke-width:0.725447;stroke-linecap:round;stroke-linejoin:round"
       id="g27"
       transform="matrix(2.7569217,0,0,2.7569217,1653.6671,269.71608)"><path
         d="M 4,8 A 4,4 0 0 1 8,4 h 8 a 4,4 0 0 1 4,4 v 8 a 4,4 0 0 1 -4,4 H 8 A 4,4 0 0 1 4,16 Z"
         id="path1-1"
         style="stroke-width:0.725447;stroke:#ffffff" /><path
         d="m 9,12 a 3,3 0 1 0 6,0 3,3 0 0 0 -6,0"
         id="path2"
         style="stroke-width:0.725447;stroke:#ffffff" /><path
         d="M 16.5,7.5 V 7.51"
         id="path3"
         style="stroke-width:0.725447;stroke:#ffffff" /></g><g
       style="fill:none;stroke:#ffffff;stroke-width:0.571635;stroke-linecap:round;stroke-linejoin:round"
       id="g28"
       transform="matrix(3.4987336,0,0,3.4987337,1644.7654,552.22909)"><path
         d="M 12,12 M 3,12 A 9,9 0 1 0 21,12 9,9 0 1 0 3,12"
         id="path1-15"
         style="stroke-width:0.571635;stroke:#ffffff" /><path
         d="m 10,16.5 2,-3 2,3 m -2,-3 v -2 l 3,-1 m -6,0 3,1"
         id="path2-2"
         style="stroke-width:0.571635;stroke:#ffffff" /><circle
         cx="12"
         cy="7.5"
         r="0.5"
         fill="currentColor"
         id="circle2"
         style="stroke-width:0.571635;stroke:#ffffff" /></g><g
       style="fill:none;stroke:#ffffff;stroke-width:0.47194;stroke-linecap:round;stroke-linejoin:round"
       id="g29"
       transform="matrix(4.1659374,0,0,4.3109566,1335.9865,544.35647)"><path
         d="m 12,12 v 0.01"
         id="path1-7"
         style="stroke-width:0.47194;stroke:#ffffff" /><path
         d="m 14.828,9.172 a 4,4 0 0 1 0,5.656"
         id="path2-6"
         style="stroke-width:0.47194;stroke:#ffffff" /><path
         d="m 17.657,6.343 a 8,8 0 0 1 0,11.314"
         id="path3-1"
         style="stroke-width:0.47194;stroke:#ffffff" /><path
         d="m 9.168,14.828 a 4,4 0 0 1 0,-5.656"
         id="path4"
         style="stroke-width:0.47194;stroke:#ffffff" /><path
         d="m 6.337,17.657 a 8,8 0 0 1 0,-11.314"
         id="path5"
         style="stroke-width:0.47194;stroke:#ffffff" /></g><g
       style="fill:none;stroke:#ffffff;stroke-width:0.834423;stroke-linecap:round;stroke-linejoin:round"
       id="g30"
       transform="matrix(2.3882033,0,0,2.4055581,1351.6847,272.99541)"><path
         d="m 3,12 h 4 l 3,8 4,-16 3,8 h 4"
         id="path1-2"
         style="stroke-width:0.834423;stroke:#ffffff" /></g><g
       style="fill:none;stroke:#ffffff;stroke-width:0.582027;stroke-linecap:round;stroke-linejoin:round"
       id="g31"
       transform="matrix(3.4362653,0,0,3.4362654,1343.1079,827.52702)"><path
         d="M 12,12 M 2,12 a 10,10 0 1 0 20,0 10,10 0 1 0 -20,0"
         id="path1-21"
         style="stroke-width:0.582027;stroke:#ffffff" /><path
         d="m 7,15 v -4.5 a 1.5,1.5 0 0 1 3,0 V 15"
         id="path2-68"
         style="stroke-width:0.582027;stroke:#ffffff" /><path
         d="m 7,13 h 3"
         id="path3-5"
         style="stroke-width:0.582027;stroke:#ffffff" /><path
         d="m 14,9 v 6 h 1 a 2,2 0 0 0 2,-2 V 11 A 2,2 0 0 0 15,9 Z"
         id="path4-7"
         style="stroke-width:0.582027;stroke:#ffffff" /></g><g
       style="fill:none;stroke:#ffffff;stroke-width:0.695882;stroke-linecap:round;stroke-linejoin:round"
       id="g32"
       transform="matrix(2.8740499,0,0,2.87405,1063.81,831.46253)"><path
         d="m 5.931,6.936 1.275,4.249 m 5.607,5.609 4.251,1.275"
         id="path1-6"
         style="stroke-width:0.695882;stroke:#ffffff" /><path
         d="M 11.683,12.317 17.442,6.558"
         id="path2-1"
         style="stroke-width:0.695882;stroke:#ffffff" /><path
         d="M 5.5,5.5 M 4,5.5 a 1.5,1.5 0 1 0 3,0 1.5,1.5 0 1 0 -3,0"
         id="path3-8"
         style="stroke-width:0.695882;stroke:#ffffff" /><path
         d="m 18.5,5.5 m -1.5,0 a 1.5,1.5 0 1 0 3,0 1.5,1.5 0 1 0 -3,0"
         id="path4-9"
         style="stroke-width:0.695882;stroke:#ffffff" /><path
         d="m 18.5,18.5 m -1.5,0 a 1.5,1.5 0 1 0 3,0 1.5,1.5 0 1 0 -3,0"
         id="path5-2"
         style="stroke-width:0.695882;stroke:#ffffff" /><path
         d="m 8.5,15.5 m -4.5,0 a 4.5,4.5 0 1 0 9,0 4.5,4.5 0 1 0 -9,0"
         id="path6"
         style="stroke-width:0.695882;stroke:#ffffff" /></g><g
       style="fill:none;stroke:#ffffff;stroke-width:0.554659;stroke-linecap:round;stroke-linejoin:round"
       id="g33"
       transform="matrix(3.6832987,0,0,3.5299675,176.35853,829.46556)"><path
         d="m 10,19 m 0,1 a 1,1 0 0 1 1,-1 h 2 a 1,1 0 0 1 1,1 v 1 a 1,1 0 0 1 -1,1 h -2 a 1,1 0 0 1 -1,-1 z"
         id="path1-79"
         style="stroke:#ffffff;stroke-width:0.554659" /><path
         d="m 12,16 c 3.314,0 6,-4.686 6,-8 A 6,6 0 1 0 6,8 c 0,3.314 2.686,8 6,8 z"
         id="path2-5"
         style="stroke:#ffffff;stroke-width:0.554659" /><path
         d="m 12,9 m -2,0 a 2,7 0 1 0 4,0 2,7 0 1 0 -4,0"
         id="path3-4"
         style="stroke:#ffffff;stroke-width:0.554659" /></g><g
       style="fill:none;stroke:#ffffff;stroke-width:0.582687;stroke-linecap:round;stroke-linejoin:round"
       id="g34"
       transform="matrix(3.292049,0,0,3.5786816,478.77555,831.44017)"><path
         d="m 3,8 m 0,2 A 2,2 0 0 1 5,8 h 14 a 2,2 0 0 1 2,2 v 4 a 2,2 0 0 1 -2,2 H 5 A 2,2 0 0 1 3,14 Z"
         id="path1-3"
         style="stroke-width:0.582687;stroke:#ffffff" /><path
         d="m 7,16 v -3 a 1,1 0 0 1 1,-1 h 8 a 1,1 0 0 1 1,1 v 3"
         id="path2-12"
         style="stroke-width:0.582687;stroke:#ffffff" /></g><g
       style="fill:none;stroke:#ffffff;stroke-width:0.565851;stroke-linecap:round;stroke-linejoin:round"
       id="g35"
       transform="matrix(3.5390351,0,0,3.5299671,758.79325,827.33963)"><path
         d="M 12,13 M 5,13 A 7,7 0 1 0 19,13 7,7 0 1 0 5,13"
         id="path1-33"
         style="stroke-width:0.565851;stroke:#ffffff" /><path
         d="m 12,10 v 3 h 2"
         id="path2-4"
         style="stroke-width:0.565851;stroke:#ffffff" /><path
         d="M 7,4 4.25,6"
         id="path3-11"
         style="stroke-width:0.565851;stroke:#ffffff" /><path
         d="m 17,4 2.75,2"
         id="path4-3"
         style="stroke-width:0.565851;stroke:#ffffff" /></g><g
       style="fill:none;stroke:#ffffff;stroke-width:0.54072;stroke-linecap:round;stroke-linejoin:round"
       id="g36"
       transform="matrix(3.7036026,0,0,3.693947,1046.7802,547.91118)"><path
         d="M 12,13 M 5,13 A 7,7 0 1 0 19,13 7,7 0 1 0 5,13"
         id="path1-8"
         style="stroke:#ffffff;stroke-width:0.54072" /><path
         d="M 7,4 4.25,6"
         id="path2-7"
         style="stroke:#ffffff;stroke-width:0.54072" /><path
         d="m 17,4 2.75,2"
         id="path3-42"
         style="stroke:#ffffff;stroke-width:0.54072" /><path
         d="m 10,13 h 4"
         id="path4-77"
         style="stroke:#ffffff;stroke-width:0.54072" /><path
         d="m 12,11 v 4"
         id="path5-9"
         style="stroke:#ffffff;stroke-width:0.54072" /></g><g
       style="fill:none;stroke:#ffffff;stroke-width:0.589168;stroke-linecap:round;stroke-linejoin:round"
       id="g37"
       transform="matrix(3.3946197,0,0,3.3946198,178.63374,550.66738)"><path
         d="M 3,12 A 9,9 0 1 0 21,12 9,9 0 0 0 3,12"
         id="path1-31"
         style="stroke-width:0.589168;stroke:#ffffff" /><path
         d="m 12,8 v 4"
         id="path2-9"
         style="stroke-width:0.589168;stroke:#ffffff" /><path
         d="m 12,16 h 0.01"
         id="path3-86"
         style="stroke-width:0.589168;stroke:#ffffff" /></g><g
       style="fill:none;stroke:#ffffff;stroke-width:0.800234;stroke-linecap:round;stroke-linejoin:round"
       id="g38"
       transform="matrix(2.499269,0,0,2.499269,481.72923,561.41109)"><path
         d="m 12.802,2.165 5.575,2.389 c 0.48,0.206 0.863,0.589 1.07,1.07 l 2.388,5.574 c 0.22,0.512 0.22,1.092 0,1.604 l -2.389,5.575 c -0.206,0.48 -0.589,0.863 -1.07,1.07 l -5.574,2.388 c -0.512,0.22 -1.092,0.22 -1.604,0 L 5.623,19.446 a 2.036,2.036 0 0 1 -1.07,-1.07 L 2.165,12.802 a 2.036,2.036 0 0 1 0,-1.604 L 4.554,5.623 C 4.76,5.143 5.143,4.76 5.624,4.553 l 5.574,-2.388 a 2.036,2.036 0 0 1 1.604,0 z"
         id="path1-5"
         style="stroke-width:0.800234;stroke:#ffffff" /><path
         d="m 12,8 v 4"
         id="path2-0"
         style="stroke-width:0.800234;stroke:#ffffff" /><path
         d="m 12,16 h 0.01"
         id="path3-2"
         style="stroke-width:0.800234;stroke:#ffffff" /></g><g
       style="fill:none;stroke:#ffffff;stroke-width:0.710511;stroke-linecap:round;stroke-linejoin:round"
       id="g39"
       transform="matrix(2.8740499,0,0,2.7569218,763.02497,564.87894)"><path
         d="M 7,18 V 7 A 2,2 0 0 1 9,5 H 9.5 A 0.5,0.5 0 0 0 10,4.5 0.5,0.5 0 0 1 10.5,4 h 3 A 0.5,0.5 0 0 1 14,4.5 0.5,0.5 0 0 0 14.5,5 H 15 a 2,2 0 0 1 2,2 v 11 a 2,2 0 0 1 -2,2 H 9 A 2,2 0 0 1 7,18"
         id="path1-86"
         style="stroke-width:0.710511;stroke:#ffffff" /><path
         d="m 10,17 h 4"
         id="path2-02"
         style="stroke-width:0.710511;stroke:#ffffff" /><path
         d="m 10,14 h 4"
         id="path3-48"
         style="stroke-width:0.710511;stroke:#ffffff" /><path
         d="m 10,11 h 4"
         id="path4-6"
         style="stroke-width:0.710511;stroke:#ffffff" /></g><g
       style="fill:none;stroke:#ffffff;stroke-width:0.720025;stroke-linecap:round;stroke-linejoin:round"
       id="g40"
       transform="matrix(2.7887653,0,0,2.7666406,1054.3508,271.24492)"><path
         d="M 20,10.99 C 19.99,16.51 15.52,20.99 10,21 V 18.74 L 9.99,18.73 C 5.71,17.62 3.13,13.26 4.23,8.98 A 8,8 0 0 1 13.97,3.22 C 17.5,4.13 20,7.35 20,11 Z"
         id="path1-50"
         style="stroke:#ffffff;stroke-width:0.720025" /><path
         d="M 10.5,8 10,7"
         id="path2-90"
         style="stroke:#ffffff;stroke-width:0.720025" /><path
         d="M 13.5,14 14,15"
         id="path3-0"
         style="stroke:#ffffff;stroke-width:0.720025" /><path
         d="M 9,12.5 8,13"
         id="path4-61"
         style="stroke:#ffffff;stroke-width:0.720025" /><path
         d="m 11,14 -0.5,1"
         id="path5-3"
         style="stroke:#ffffff;stroke-width:0.720025" /><path
         d="M 13,8 13.5,7"
         id="path6-8"
         style="stroke:#ffffff;stroke-width:0.720025" /><path
         d="M 16,12.5 15,12"
         id="path7"
         style="stroke:#ffffff;stroke-width:0.720025" /><path
         d="M 9,10 8,9.5"
         id="path8"
         style="stroke:#ffffff;stroke-width:0.720025" /></g><g
       style="fill:none;stroke:#ffffff;stroke-width:0.74357;stroke-linecap:round;stroke-linejoin:round"
       id="g41"
       transform="matrix(2.6660243,0,0,2.7136409,767.39532,272.20706)"><path
         d="M 3,18 21,6 H 3 L 12,20 21,6 V 16 L 3,6 Z"
         id="path1-4"
         style="stroke:#ffffff;stroke-width:0.74357" /></g><g
       style="fill:none;stroke:#ffffff;stroke-width:0.69593;stroke-linecap:round;stroke-linejoin:round"
       id="g42"
       transform="matrix(2.8739663,0,0,2.8737349,481.53515,269.85076)"><path
         d="m 20.978,11.372 a 9,9 0 1 0 -1.593,5.773"
         id="path1-60"
         style="stroke:#ffffff;stroke-width:0.69593" /><path
         d="m 20.978,11.372 c 0.21,2.993 -5.034,2.413 -6.913,1.486 1.392,-1.6 0.402,-4.038 -2.274,-3.851 -1.745,0.122 -2.927,1.157 -2.784,3.202 0.28,3.99 4.444,6.205 10.36,4.79"
         id="path2-66"
         style="stroke:#ffffff;stroke-width:0.69593" /><path
         d="M 3.022,12.628 C 2.739,8.585 11.739,5.4 14.27,9.94"
         id="path3-18"
         style="stroke:#ffffff;stroke-width:0.69593" /><path
         d="M 12.628,20.978 C 9.635,21.188 7.466,16.253 9.061,11.23"
         id="path4-4"
         style="stroke:#ffffff;stroke-width:0.69593" /></g><g
       style="fill:none;stroke:#ffffff;stroke-width:0.75024;stroke-linecap:round;stroke-linejoin:round"
       id="g43"
       transform="matrix(2.6658128,0,0,2.6658147,190.51759,271.75562)"><path
         d="M 21,14 12,21 3,14 6,3 9,10 h 6 l 3,-7 z"
         id="path1-78"
         style="stroke:#ffffff;stroke-width:0.75024" /></g><g
       style="fill:none;stroke:#ffffff;stroke-width:0.78995;stroke-linecap:round;stroke-linejoin:round"
       id="g44"
       transform="matrix(2.5196066,0,0,2.5440618,1656.6995,837.52101)"><path
         d="m 2,7 v 1 c 0,1.087 1.078,2 2,2 1.107,0 2,-0.91 2,-2 0,1.09 0.893,2 2,2 1.107,0 2,-0.91 2,-2 0,1.09 0.893,2 2,2 1.107,0 2,-0.91 2,-2 0,1.09 0.893,2 2,2 1.107,0 2,-0.91 2,-2 0,1.09 0.893,2 2,2 0.922,0 2,-0.913 2,-2 V 7 C 21.991,6.725 21.462,6.036 20.412,4.932 A 3,3 0 0 0 18.238,4 H 5.762 A 3,3 0 0 0 3.588,4.932 C 2.538,6.036 2.008,6.725 2,7 Z"
         id="path1-82"
         style="stroke-width:0.78995;stroke:#ffffff" /><path
         d="m 4,10 c -0.117,6.28 0.154,9.765 0.814,10.456 1.534,0.367 4.355,0.535 7.186,0.536 2.83,-0.001 5.652,-0.169 7.186,-0.536 C 20.176,19.419 20.084,10.897 20,10"
         id="path2-91"
         style="stroke-width:0.78995;stroke:#ffffff" /><path
         d="m 10,16 2,-2 2,2"
         id="path3-3"
         style="stroke-width:0.78995;stroke:#ffffff" /><path
         d="m 12,14 v 4"
         id="path4-5"
         style="stroke-width:0.78995;stroke:#ffffff" /></g><g
       style="fill:none;stroke:#559ef2;stroke-width:0.607812;stroke-linecap:round;stroke-linejoin:round;stroke-opacity:1"
       id="g45"
       transform="matrix(3.2904931,0,0,3.29049,154.89413,55.843062)"><path
         d="M 5,12 H 3 l 9,-9 9,9 h -2"
         id="path1-9"
         style="stroke-width:0.607812;stroke:#559ef2;stroke-opacity:1" /><path
         d="m 5,12 v 7 a 2,2 0 0 0 2,2 h 10 a 2,2 0 0 0 2,-2 v -7"
         id="path2-8"
         style="stroke-width:0.607812;stroke:#559ef2;stroke-opacity:1" /><path
         d="m 9,21 v -6 a 2,2 0 0 1 2,-2 h 2 a 2,2 0 0 1 2,2 v 6"
         id="path3-40"
         style="stroke-width:0.607812;stroke:#559ef2;stroke-opacity:1" /></g><g
       style="fill:none;stroke:#559ef2;stroke-width:1.03251;stroke-linecap:round;stroke-linejoin:round;stroke-opacity:1"
       id="g46"
       transform="matrix(1.937025,0,0,1.937025,1661.937,74.743763)"><path
         d="M 10,10 M 3,10 A 7,7 0 1 0 17,10 7,7 0 1 0 3,10"
         id="path1-76"
         style="stroke-width:1.03251;stroke:#559ef2;stroke-opacity:1" /><path
         d="M 21,21 15,15"
         id="path2-3"
         style="stroke-width:1.03251;stroke:#559ef2;stroke-opacity:1" /></g><rect
       style="fill:#559ef2;fill-opacity:1;stroke:#559ef2;stroke-width:1;stroke-dasharray:none;stroke-opacity:1"
       id="rect46"
       width="11.244299"
       height="237.06731"
       x="1864.9668"
       y="420.24524"
       ry="5.6221495" /><g
       style="fill:none;stroke:#559ef2;stroke-width:1.06189;stroke-linecap:round;stroke-linejoin:round;stroke-opacity:1"
       id="g47"
       transform="matrix(1.8834354,0,0,1.8834354,1785.3781,73.749488)"><path
         d="M 12,12 M 3,12 A 9,9 0 1 0 21,12 9,9 0 1 0 3,12"
         id="path1-61"
         style="stroke-width:1.06189;stroke:#559ef2;stroke-opacity:1" /><path
         d="m 12,17 v 0.01"
         id="path2-54"
         style="stroke-width:1.06189;stroke:#559ef2;stroke-opacity:1" /><path
         d="M 12,13.5 A 1.5,1.5 0 0 1 13,12 2.6,2.6 0 1 0 10,8"
         id="path3-20"
         style="stroke-width:1.06189;stroke:#559ef2;stroke-opacity:1" /></g><text
       xml:space="preserve"
       style="font-size:53.3333px;font-family:'Space Mono';-inkscape-font-specification:'Space Mono';text-align:start;letter-spacing:0px;writing-mode:lr-tb;direction:ltr;text-anchor:start;fill:#559ef2;fill-opacity:1;stroke:#559ef2;stroke-width:1;stroke-dasharray:none;stroke-opacity:1"
       x="693.92902"
       y="1144.9325"
       id="text47"><tspan
         sodipodi:role="line"
         id="tspan47"
         x="693.92902"
         y="1144.9325"
         style="font-style:normal;font-variant:normal;font-weight:normal;font-stretch:normal;font-size:53.3333px;font-family:Roboto;-inkscape-font-specification:Roboto">Settings Screen</tspan></text><rect
       style="fill:#353535;fill-opacity:1;stroke:#3a3a3a;stroke-width:1;stroke-dasharray:none;stroke-opacity:1"
       id="rect48"
       width="1918.7516"
       height="1076.6339"
       x="1930.7484"
       y="2.8660564" /><rect
       style="fill:#1f1f1f;fill-opacity:1;stroke:#1f1f1f;stroke-width:0.999995;stroke-dasharray:none;stroke-opacity:1"
       id="rect49"
       width="1918.7517"
       height="50.355827"
       x="1930.7484"
       y="1029.1442" /><ellipse
       style="fill:#559ef2;fill-opacity:1;stroke:#559ef2;stroke-width:2.99999;stroke-opacity:1"
       id="circle49"
       cx="2068.3994"
       cy="156.83472"
       rx="44.779644"
       ry="45.101273" /><ellipse
       style="fill:#559ef2;fill-opacity:1;stroke:#559ef2;stroke-width:2.99999;stroke-opacity:1"
       id="circle50"
       cx="2068.2188"
       cy="333.45609"
       rx="44.779644"
       ry="45.101273" /><ellipse
       style="fill:#559ef2;fill-opacity:1;stroke:#559ef2;stroke-width:2.99999;stroke-opacity:1"
       id="circle51"
       cx="2069.7095"
       cy="498.42914"
       rx="44.779644"
       ry="45.101273" /><ellipse
       style="fill:#559ef2;fill-opacity:1;stroke:#559ef2;stroke-width:2.99999;stroke-opacity:1"
       id="ellipse51"
       cx="2068.3994"
       cy="671.18719"
       rx="44.779644"
       ry="45.101273" /><ellipse
       style="fill:#559ef2;fill-opacity:1;stroke:#559ef2;stroke-width:2.99999;stroke-opacity:1"
       id="ellipse52"
       cx="2226.1318"
       cy="160.88147"
       rx="44.779644"
       ry="45.101273" /><ellipse
       style="fill:#559ef2;fill-opacity:1;stroke:#559ef2;stroke-width:2.99999;stroke-opacity:1"
       id="ellipse53"
       cx="2227.6226"
       cy="325.85452"
       rx="44.779644"
       ry="45.101273" /><ellipse
       style="fill:#474747;fill-opacity:1;stroke:#474747;stroke-width:2.99999;stroke-opacity:1"
       id="ellipse54"
       cx="3721.1182"
       cy="1054.322"
       rx="13.361858"
       ry="13.465135" /><ellipse
       style="fill:#474747;fill-opacity:1;stroke:#474747;stroke-width:2.99999;stroke-opacity:1"
       id="ellipse55"
       cx="3670.9873"
       cy="1054.322"
       rx="13.361858"
       ry="13.465135" /><ellipse
       style="fill:#474747;fill-opacity:1;stroke:#474747;stroke-width:2.99999;stroke-opacity:1"
       id="ellipse56"
       cx="3624.6045"
       cy="1054.322"
       rx="13.361858"
       ry="13.465135" /><ellipse
       style="fill:#474747;fill-opacity:1;stroke:#474747;stroke-width:2.99999;stroke-opacity:1"
       id="ellipse57"
       cx="3581.0327"
       cy="1054.322"
       rx="13.361858"
       ry="13.465135" /><text
       xml:space="preserve"
       style="font-size:53.3333px;font-family:'Space Mono';-inkscape-font-specification:'Space Mono';text-align:start;letter-spacing:0px;writing-mode:lr-tb;direction:ltr;text-anchor:start;fill:#559ef2;fill-opacity:1;stroke:#559ef2;stroke-width:1;stroke-dasharray:none;stroke-opacity:1"
       x="2791.6609"
       y="1156.8588"
       id="text57"><tspan
         sodipodi:role="line"
         id="tspan57"
         x="2791.6609"
         y="1156.8588"
         style="font-style:normal;font-variant:normal;font-weight:normal;font-stretch:normal;font-size:53.3333px;font-family:Roboto;-inkscape-font-specification:Roboto">Desktop</tspan></text></g></svg>
